HIERARCHY
ROOT Hips
{
	OFFSET -0.001795 -0.223333 0.028219
	CHANNELS 6 Xposition Yposition Zposition Zrotation Yrotation Xrotation 
	JOINT LeftUpLeg
	{
		OFFSET 0.069520 -0.091406 -0.006815
		CHANNELS 3 Zrotation Yrotation Xrotation
		JOINT LeftLeg
		{
			OFFSET 0.034277 -0.375199 -0.004496
			CHANNELS 3 Zrotation Yrotation Xrotation
			JOINT LeftFoot
			{
				OFFSET -0.013596 -0.397961 -0.043693
				CHANNELS 3 Zrotation Yrotation Xrotation
				JOINT LeftToe
				{
					OFFSET 0.026358 -0.055791 0.119288
					CHANNELS 3 Zrotation Yrotation Xrotation
					End Site
					{
						OFFSET 0.000000 0.000000 0.000000
					}
				}
			}
		}
	}
	JOINT RightUpLeg
	{
		OFFSET -0.067670 -0.090522 -0.004320
		CHANNELS 3 Zrotation Yrotation Xrotation
		JOINT RightLeg
		{
			OFFSET -0.038290 -0.382569 -0.008850
			CHANNELS 3 Zrotation Yrotation Xrotation
			JOINT RightFoot
			{
				OFFSET 0.015774 -0.398415 -0.042312
				CHANNELS 3 Zrotation Yrotation Xrotation
				JOINT RightToe
				{
					OFFSET -0.025372 -0.048144 0.123348
					CHANNELS 3 Zrotation Yrotation Xrotation
					End Site
					{
						OFFSET 0.000000 0.000000 0.000000
					}
				}
			}
		}
	}
	JOINT Spine
	{
		OFFSET -0.002533 0.108963 -0.026696
		CHANNELS 3 Zrotation Yrotation Xrotation
		JOINT Spine1
		{
			OFFSET 0.005487 0.135180 0.001092
			CHANNELS 3 Zrotation Yrotation Xrotation
			JOINT Spine2
			{
				OFFSET 0.001457 0.052922 0.025425
				CHANNELS 3 Zrotation Yrotation Xrotation
				JOINT Neck
				{
					OFFSET -0.002778 0.213870 -0.042857
					CHANNELS 3 Zrotation Yrotation Xrotation
					JOINT Head
					{
						OFFSET 0.005152 0.064970 0.051349
						CHANNELS 3 Zrotation Yrotation Xrotation
						End Site
						{
							OFFSET 0.000000 0.000000 0.000000
						}
					}
				}
				JOINT LeftShoulder
				{
					OFFSET 0.078845 0.121749 -0.034090
					CHANNELS 3 Zrotation Yrotation Xrotation
					JOINT LeftArm
					{
						OFFSET 0.090977 0.030469 -0.008868
						CHANNELS 3 Zrotation Yrotation Xrotation
						JOINT LeftForeArm
						{
							OFFSET 0.259612 -0.012772 -0.027456
							CHANNELS 3 Zrotation Yrotation Xrotation
							JOINT LeftHand
							{
								OFFSET 0.249234 0.008986 -0.001171
								CHANNELS 3 Zrotation Yrotation Xrotation
								End Site
								{
									OFFSET 0.000000 0.000000 0.000000
								}
							}
						}
					}
				}
				JOINT RightShoulder
				{
					OFFSET -0.081759 0.118833 -0.038615
					CHANNELS 3 Zrotation Yrotation Xrotation
					JOINT RightArm
					{
						OFFSET -0.096012 0.032551 -0.009143
						CHANNELS 3 Zrotation Yrotation Xrotation
						JOINT RightForeArm
						{
							OFFSET -0.253742 -0.013329 -0.021401
							CHANNELS 3 Zrotation Yrotation Xrotation
							JOINT RightHand
							{
								OFFSET -0.255298 0.007772 -0.005559
								CHANNELS 3 Zrotation Yrotation Xrotation
								End Site
								{
									OFFSET 0.000000 0.000000 0.000000
								}
							}
						}
					}
				}
			}
		}
	}
}
MOTION
Frames: 16
Frame Time: 0.050000
0.000000 0.941857 0.000000 -1.074801 -4.200241 6.610939 7.507564 -0.244467 -3.895072 0.789562 0.128647 -5.266820 1.665401 6.575745 10.949902 0.000000 0.000000 0.000000 -4.083228 0.488272 -4.561268 -2.278066 -0.009387 -3.856118 -0.687986 -6.365440 10.603770 0.000000 0.000000 0.000000 4.438349 0.220888 -4.286749 -2.436220 1.106159 -4.315629 -2.492324 4.406366 3.780115 5.047940 -2.465163 -9.989474 0.000000 0.000000 0.000000 -14.483336 -1.850504 -0.988114 -57.591280 -9.626103 -2.102732 -9.970554 -14.436325 1.713253 0.000000 0.000000 0.000000 12.482490 -4.565306 -2.915147 62.630885 5.216620 -3.012750 9.684200 17.870758 1.997890 0.000000 0.000000 0.000000 
-0.000123 0.941178 0.000089 -1.392823 -5.145860 7.370324 7.183727 -0.235477 -3.382750 1.761077 0.124558 -6.435759 1.894664 6.822690 10.818569 0.000000 0.000000 0.000000 -4.058358 0.577662 -5.706365 -2.362678 0.015121 -3.449066 0.209765 -5.009295 11.297715 0.000000 0.000000 0.000000 5.175602 0.245415 -4.568552 -2.811025 1.249630 -4.601500 -2.785500 5.069461 2.955566 5.093361 -2.453595 -10.068260 0.000000 0.000000 0.000000 -15.585123 -1.245847 -1.478319 -56.467689 -9.312700 -2.101876 -11.409208 -13.592759 1.767216 0.000000 0.000000 0.000000 11.899069 -5.430488 -3.246222 63.451032 4.192371 -3.463788 10.511865 17.749507 2.095344 0.000000 0.000000 0.000000 
-0.000084 0.941184 0.000023 -1.309428 -4.902372 7.138747 6.839765 -0.247452 -3.667498 2.215814 0.011672 -4.924630 1.529673 5.854720 9.229252 0.000000 0.000000 0.000000 -3.683143 0.581419 -5.845998 -2.979221 0.086147 -2.983715 -0.084155 -5.456893 11.045237 0.000000 0.000000 0.000000 4.842853 0.197370 -4.028298 -1.995632 0.899419 -6.116950 -3.389454 5.268824 3.489387 5.501531 -2.750077 -9.808510 0.000000 0.000000 0.000000 -15.253080 -1.332243 -1.461947 -56.739115 -8.572586 -2.537477 -10.943270 -12.598009 1.579610 0.000000 0.000000 0.000000 13.237828 -5.127980 -3.184235 62.293826 3.629100 -3.786400 9.453868 17.886982 1.982695 0.000000 0.000000 0.000000 
-0.000039 0.941033 0.000053 -1.514805 -5.172822 7.833987 7.096342 -0.258358 -3.924991 1.777961 0.082090 -5.668756 1.762838 6.392313 9.933903 0.000000 0.000000 0.000000 -3.717837 0.648835 -6.685891 -2.903935 0.072829 -3.077374 0.010265 -5.584293 11.769448 0.000000 0.000000 0.000000 4.898604 0.229938 -4.493760 -2.315072 1.026486 -5.879684 -2.809437 4.623735 2.379936 5.029311 -2.663050 -8.494219 0.000000 0.000000 0.000000 -15.223935 -0.525437 -1.704904 -57.227694 -8.661991 -2.396647 -10.462782 -11.413615 1.391175 0.000000 0.000000 0.000000 12.136783 -5.196402 -3.239697 62.647209 3.051061 -4.012295 10.682013 17.989091 2.130064 0.000000 0.000000 0.000000 
-0.000023 0.941572 0.000093 -1.413178 -5.143756 7.583396 6.521021 -0.267045 -3.975549 2.159056 0.033936 -5.254187 1.842987 6.511079 9.821599 0.000000 0.000000 0.000000 -3.633110 0.627887 -6.425732 -3.296491 0.077896 -3.411267 0.201426 -5.316074 12.027671 0.000000 0.000000 0.000000 4.685813 0.219796 -4.353840 -2.088354 0.936084 -5.647242 -2.902586 4.389879 2.334854 4.816742 -2.479551 -8.825188 0.000000 0.000000 0.000000 -15.138626 -0.464514 -1.688789 -57.064330 -8.599898 -2.420429 -10.995750 -10.790588 1.363492 0.000000 0.000000 0.000000 11.873954 -5.519786 -3.382673 62.768955 2.889222 -4.111771 10.874942 18.105810 2.167658 0.000000 0.000000 0.000000 
-0.000040 0.942139 0.000163 -1.427522 -5.369063 7.984533 6.536674 -0.271187 -4.008867 1.844052 0.078964 -5.695862 2.233630 7.273698 10.365436 0.000000 0.000000 0.000000 -3.670064 0.652463 -6.702099 -3.440207 0.055164 -3.866133 0.449120 -5.240723 12.974133 0.000000 0.000000 0.000000 4.627827 0.251410 -4.766596 -2.034529 0.908638 -5.850965 -2.595323 4.307314 2.496054 4.679011 -2.441963 -8.560429 0.000000 0.000000 0.000000 -15.109057 0.058295 -1.880811 -57.257481 -8.682925 -2.398304 -11.123966 -9.997182 1.274121 0.000000 0.000000 0.000000 11.102441 -5.637418 -3.370047 63.223501 2.905069 -4.148437 11.204723 18.042066 2.197382 0.000000 0.000000 0.000000 
-0.000138 0.942506 0.000144 -1.449062 -5.337871 8.121535 6.263210 -0.287582 -4.257466 1.954759 0.061908 -5.512999 2.441583 7.703745 10.732645 0.000000 0.000000 0.000000 -3.503617 0.668266 -6.901938 -3.635080 0.064275 -3.905517 0.576051 -5.054482 13.109082 0.000000 0.000000 0.000000 4.684148 0.266781 -4.955649 -2.039653 0.912672 -5.592158 -2.529508 4.102941 2.371899 4.582191 -2.351483 -8.803332 0.000000 0.000000 0.000000 -15.091121 0.223761 -1.924164 -56.697650 -8.292351 -2.546619 -11.707141 -10.248792 1.359728 0.000000 0.000000 0.000000 11.031227 -5.700182 -3.415516 63.214656 2.535235 -4.347853 11.403210 18.600718 2.296950 0.000000 0.000000 0.000000 
-0.000277 0.942900 0.000041 -1.605911 -5.462566 8.384231 6.061748 -0.302151 -4.475281 2.036073 0.043262 -5.277348 2.887718 8.402450 10.512674 0.000000 0.000000 0.000000 -3.186469 0.691610 -7.158807 -3.658984 0.058373 -3.995147 0.660045 -4.955004 13.198949 0.000000 0.000000 0.000000 4.753812 0.282684 -5.160595 -1.967852 0.882164 -5.383371 -2.513226 4.217305 2.119980 4.816875 -2.560712 -8.400170 0.000000 0.000000 0.000000 -15.051396 0.287362 -1.966666 -56.054913 -8.241528 -2.513433 -12.447692 -10.473419 1.453746 0.000000 0.000000 0.000000 11.224965 -5.918909 -3.539799 63.144539 2.292680 -4.442057 11.666868 18.860787 2.373026 0.000000 0.000000 0.000000 
-0.000406 0.943125 -0.000097 -1.697850 -5.473152 8.447225 5.955856 -0.310416 -4.616223 2.071122 0.024007 -4.975425 3.038735 8.624045 10.327926 0.000000 0.000000 0.000000 -3.027709 0.689754 -7.117093 -3.709467 0.048059 -4.183668 0.679576 -5.012544 13.437238 0.000000 0.000000 0.000000 4.733099 0.270398 -5.037012 -1.914080 0.859305 -5.450242 -2.342372 4.374061 2.122276 5.013056 -2.693334 -8.370617 0.000000 0.000000 0.000000 -14.862937 0.092827 -1.868195 -55.559616 -8.491419 -2.373864 -13.178307 -10.815988 1.567880 0.000000 0.000000 0.000000 11.496416 -5.867727 -3.540571 62.668274 2.205265 -4.449187 11.976568 19.245357 2.480568 0.000000 0.000000 0.000000 
-0.000503 0.943257 -0.000233 -1.761965 -5.437431 8.538504 5.805591 -0.325934 -4.885033 2.014328 0.009407 -4.634119 3.413532 9.197279 9.927133 0.000000 0.000000 0.000000 -2.879263 0.698659 -7.214222 -3.788719 0.037433 -4.402586 0.671506 -5.085114 13.600339 0.000000 0.000000 0.000000 4.870129 0.281309 -5.160254 -2.057658 0.921610 -5.059057 -2.207887 4.390506 1.964729 5.214573 -2.861761 -8.142806 0.000000 0.000000 0.000000 -14.759885 -0.069469 -1.783284 -54.892955 -8.837419 -2.169025 -14.064044 -11.111147 1.694199 0.000000 0.000000 0.000000 11.535615 -5.725025 -3.480796 62.639014 2.217615 -4.423840 12.008485 19.641158 2.543193 0.000000 0.000000 0.000000 
-0.000545 0.943134 -0.000355 -1.776036 -5.425823 8.596098 5.845490 -0.325471 -4.872027 1.798594 0.028747 -4.699444 3.436315 9.211978 9.775846 0.000000 0.000000 0.000000 -2.955348 0.700966 -7.242979 -3.652840 0.017065 -4.587307 0.553500 -5.456768 14.028881 0.000000 0.000000 0.000000 4.895061 0.275915 -5.109470 -2.142448 0.957696 -4.978825 -2.114657 4.439353 1.970957 5.286457 -2.898074 -8.218659 0.000000 0.000000 0.000000 -14.444244 -0.424845 -1.578330 -54.493824 -9.245981 -1.967667 -14.701970 -11.725127 1.854362 0.000000 0.000000 0.000000 11.453474 -5.566706 -3.392683 62.632370 2.467354 -4.285981 12.156860 19.863947 2.601363 0.000000 0.000000 0.000000 
-0.000565 0.942922 -0.000454 -1.719844 -5.326780 8.649463 5.982165 -0.323504 -4.843383 1.502976 0.054095 -4.768321 3.580795 9.460031 9.720781 0.000000 0.000000 0.000000 -3.014883 0.692890 -7.142548 -3.661068 0.009116 -4.716137 0.548405 -5.522202 14.233186 0.000000 0.000000 0.000000 4.834413 0.268743 -5.058532 -2.134389 0.957710 -4.720545 -1.949386 4.304262 1.769858 5.575843 -3.053733 -8.513664 0.000000 0.000000 0.000000 -14.387651 -0.525671 -1.509247 -53.856805 -9.369301 -1.867513 -15.092931 -12.366931 2.002349 0.000000 0.000000 0.000000 11.394073 -5.566583 -3.401460 62.629238 2.391801 -4.310198 11.970341 20.733482 2.694521 0.000000 0.000000 0.000000 
-0.000497 0.942862 -0.000577 -1.687957 -5.373178 8.603277 5.845208 -0.319614 -4.673971 1.557166 0.057422 -4.912628 3.530935 9.381332 9.780633 0.000000 0.000000 0.000000 -3.115735 0.688227 -7.088507 -3.664517 -0.015903 -5.086209 0.521865 -5.779708 14.802452 0.000000 0.000000 0.000000 4.718565 0.254233 -4.902624 -1.930703 0.872709 -4.593630 -1.978333 4.506902 1.546771 5.864670 -3.221271 -8.601225 0.000000 0.000000 0.000000 -14.423549 -0.671956 -1.486757 -53.166790 -9.251076 -1.870693 -15.631356 -13.344083 2.221322 0.000000 0.000000 0.000000 11.656237 -5.601234 -3.430761 62.297670 2.228355 -4.340061 12.368939 21.760816 2.926004 0.000000 0.000000 0.000000 
-0.000382 0.942783 -0.000720 -1.614777 -5.576058 8.589951 5.571959 -0.328204 -4.791302 1.685683 0.044358 -4.847115 3.698542 9.627836 9.632094 0.000000 0.000000 0.000000 -3.122476 0.694484 -7.159133 -3.790041 -0.020497 -5.232685 0.673581 -5.615054 15.005819 0.000000 0.000000 0.000000 4.579050 0.238860 -4.731073 -1.920574 0.867667 -4.417856 -1.910072 4.814269 1.285537 6.533402 -3.752700 -8.053173 0.000000 0.000000 0.000000 -14.132288 -0.930218 -1.370455 -52.483140 -8.904304 -1.972017 -16.448852 -14.379342 2.492920 0.000000 0.000000 0.000000 11.562509 -5.640659 -3.415666 62.345098 1.781314 -4.534825 12.782686 23.428997 3.271125 0.000000 0.000000 0.000000 
-0.000215 0.942756 -0.000872 -1.458457 -5.396702 8.620929 5.314569 -0.344478 -4.969996 1.763011 0.034159 -4.749609 3.596595 9.484440 9.716992 0.000000 0.000000 0.000000 -3.297575 0.697920 -7.221897 -3.867292 -0.036762 -5.534298 0.649365 -5.741519 15.330801 0.000000 0.000000 0.000000 4.377709 0.225715 -4.619005 -1.809769 0.822464 -4.514140 -1.990438 5.064519 1.109264 6.711900 -3.892505 -7.819707 0.000000 0.000000 0.000000 -14.045276 -0.731293 -1.524305 -51.754893 -8.239811 -2.207547 -17.904267 -15.779715 2.927479 0.000000 0.000000 0.000000 11.415162 -5.962953 -3.502077 62.175318 1.366793 -4.689379 13.745591 24.821708 3.713814 0.000000 0.000000 0.000000 
-0.000053 0.942493 -0.000994 -1.182943 -5.360823 8.577983 4.974618 -0.360493 -5.141940 1.684714 0.030361 -4.565294 3.595451 9.398674 9.174159 0.000000 0.000000 0.000000 -3.525419 0.703060 -7.314889 -3.941240 -0.047952 -5.748154 0.698012 -5.612594 15.233286 0.000000 0.000000 0.000000 4.291537 0.217682 -4.527368 -1.835377 0.834466 -4.413522 -2.251073 5.634961 0.980577 7.559317 -4.542224 -7.309314 0.000000 0.000000 0.000000 -13.805183 -0.828251 -1.567590 -50.524335 -7.503361 -2.434101 -19.856939 -18.033547 3.632098 0.000000 0.000000 0.000000 11.397430 -6.238396 -3.547703 61.321171 0.115673 -5.209893 16.871227 28.530578 5.174363 0.000000 0.000000 0.000000 
